<svg width="32" height="32" viewBox="0 0 32 32" fill="none" xmlns="http://www.w3.org/2000/svg">
<ellipse cx="8.00008" cy="18.6673" rx="1.33333" ry="1.33333" stroke="#272727" stroke-width="1.5"/>
<ellipse cx="24.0001" cy="18.6673" rx="1.33333" ry="1.33333" stroke="#272727" stroke-width="1.5"/>
<path d="M5.33325 24H9.33325V24.6667C9.33325 25.7712 8.43782 26.6667 7.33325 26.6667V26.6667C6.22868 26.6667 5.33325 25.7712 5.33325 24.6667V24Z" stroke="#272727" stroke-width="1.5"/>
<path d="M22.6667 24H26.6667V24.6667C26.6667 25.7712 25.7713 26.6667 24.6667 26.6667V26.6667C23.5622 26.6667 22.6667 25.7712 22.6667 24.6667V24Z" stroke="#272727" stroke-width="1.5"/>
<path d="M13.3333 20H18.6666" stroke="#272727" stroke-width="1.5" stroke-linecap="round" stroke-linejoin="round"/>
<path d="M5.33341 14.0462L7.60093 9.01081C8.25001 7.58283 9.67383 6.66602 11.2424 6.66602H20.2922C21.756 6.66602 23.1029 7.46556 23.8038 8.75061L26.6667 14.0462M4.00008 23.9993H28.0001C28.7365 23.9993 29.3334 23.4024 29.3334 22.666V18.666C29.3334 15.7205 26.9456 13.3327 24.0001 13.3327H8.00008C5.05456 13.3327 2.66675 15.7205 2.66675 18.666V22.666C2.66675 23.4024 3.2637 23.9993 4.00008 23.9993Z" stroke="#272727" stroke-width="1.5"/>
<path d="M13.3333 17.334H18.6666" stroke="#272727" stroke-width="1.5" stroke-linecap="round" stroke-linejoin="round"/>
</svg>
