<svg width="30" height="30" viewBox="0 0 30 30" fill="none" xmlns="http://www.w3.org/2000/svg">
<path d="M18.75 8.52941C18.75 10.4787 17.0711 12.5 15 12.5C12.9289 12.5 11.25 10.4787 11.25 8.52941C11.25 6.58017 12.9289 5 15 5C17.0711 5 18.75 6.58017 18.75 8.52941Z" stroke="#C4B28A" stroke-width="1.5"/>
<path d="M23.0102 25.1233C23.0783 25.5319 23.4647 25.8079 23.8733 25.7398C24.2819 25.6717 24.5579 25.2853 24.4898 24.8767L23.0102 25.1233ZM5.5102 24.8767C5.44211 25.2853 5.71812 25.6717 6.1267 25.7398C6.53528 25.8079 6.9217 25.5319 6.9898 25.1233L5.5102 24.8767ZM22.988 20.428L23.7278 20.3047L22.988 20.428ZM11.944 17H18.056V15.5H11.944V17ZM22.2482 20.5513L23.0102 25.1233L24.4898 24.8767L23.7278 20.3047L22.2482 20.5513ZM6.9898 25.1233L7.75179 20.5513L6.2722 20.3047L5.5102 24.8767L6.9898 25.1233ZM18.056 17C20.1336 17 21.9067 18.502 22.2482 20.5513L23.7278 20.3047C23.2657 17.5321 20.8669 15.5 18.056 15.5V17ZM11.944 15.5C9.13314 15.5 6.7343 17.5321 6.2722 20.3047L7.75179 20.5513C8.09334 18.502 9.8664 17 11.944 17V15.5Z" fill="#C4B28A"/>
</svg>
