<svg width="32" height="32" viewBox="0 0 32 32" fill="none" xmlns="http://www.w3.org/2000/svg">
<path d="M16 28C22.6274 28 28 22.6274 28 16C28 9.37258 22.6274 4 16 4C9.37258 4 4 9.37258 4 16C4 18.5702 4.80803 20.9517 6.1839 22.9042L4.4924 26.8511C4.3146 27.2659 4.73407 27.6854 5.14893 27.5076L9.09578 25.8161C11.0483 27.192 13.4298 28 16 28Z" stroke="#272727" stroke-width="1.5" stroke-linejoin="round"/>
<path d="M12.376 10.3359L13.8966 13.039L12.2612 14.2248L12.7009 15.0064C13.7471 16.8661 15.235 18.4397 17.0334 19.5883L17.9322 20.1625L19.0646 18.5045L21.6783 20.1739L21.0149 20.4828C20.085 20.9156 18.9984 20.8434 18.134 20.2913L17.9322 20.1625L17.0334 19.5883C15.235 18.4397 13.7471 16.8661 12.7009 15.0064L12.2612 14.2248L12.0606 13.8682C11.5577 12.9742 11.5463 11.8853 12.0305 10.9811L12.376 10.3359Z" fill="#272727"/>
<path d="M12.2612 14.2248L12.0606 13.8682C11.5577 12.9742 11.5463 11.8853 12.0305 10.9811L12.376 10.3359L13.8966 13.039L12.2612 14.2248ZM12.2612 14.2248L12.7009 15.0064C13.7471 16.8661 15.235 18.4397 17.0334 19.5883L17.9322 20.1625M17.9322 20.1625L18.134 20.2913C18.9984 20.8434 20.085 20.9156 21.0149 20.4828L21.6783 20.1739L19.0646 18.5045L17.9322 20.1625Z" stroke="#272727" stroke-width="1.69245" stroke-linecap="round" stroke-linejoin="round"/>
</svg>
